<svg xmlns="http://www.w3.org/2000/svg" width="30.456" height="31.366" viewBox="0 0 30.456 31.366">
  <g id="Camada_x0020_1" transform="translate(0.002)">
    <g id="_2280396956336" transform="translate(-0.002 0)">
      <path id="Caminho_110" data-name="Caminho 110" d="M1.809,93.453H28.647c0,2.241.1,16.613-.044,17.591-.672.088-23.77.03-26.53.03a.388.388,0,0,1-.217-.055l-.048-.342V93.453ZM.947,85.439l-.331.121a1.83,1.83,0,0,1-.256.353c-.1.144-.138.247-.224.387l-.122.993c.093,2,0,4.256,0,6.293v15.832c0,1.385-.156,1.693.363,2.761l.171.22a2.26,2.26,0,0,0,1.318.465H27.644c.307,0,.625.009.93,0,.352-.008.521-.111.823-.1.18-.221.443-.287.638-.56.145-.2.278-.69.419-.844-.077-.514-.008-5.318-.021-6.38-.026-2.088,0-4.2,0-6.293l.009-11.067a12.617,12.617,0,0,0-.1-1.3l-.171-.29a1.491,1.491,0,0,0-.6-.592c-.751-.418-3.647-.26-4.71-.26.043.813.178,3.525-.408,3.776-.1.247-.044.119-.155.189l-.145.228a1.241,1.241,0,0,1-.714.412c-.139.174-.313.181-.565.226-.527.057-1.373,0-1.59-.341-.26-.1-.294-.1-.406-.306-.988-.5-.8-2.7-.778-3.985l0-.231-9.814.033a13.3,13.3,0,0,1-.138,3.246,2.223,2.223,0,0,1-1.584,1.508A2.159,2.159,0,0,1,7.505,90c-.338-.071-.753-.156-.9-.425-.165-.035-.078.046-.271-.124a1.515,1.515,0,0,1-.157-.175,1.566,1.566,0,0,1-.525-.861,13.3,13.3,0,0,1-.138-3.246c-.848,0-4.2-.159-4.571.266Z" transform="translate(0.002 -81.501)" fill="#fff" fill-rule="evenodd"/>
      <path id="Caminho_111" data-name="Caminho 111" d="M488.641.5c-.119.168-.146.253-.307.356a8.654,8.654,0,0,0-.157,1.156c0,.442,0,.884,0,1.326a20.183,20.183,0,0,1-.038,2.6c.123.147.086.229.172.441a2.648,2.648,0,0,0,.187.342c.182.172.156.076.224.288l.75.394c.246-.037.439-.009.671-.045a1.725,1.725,0,0,0,.255-.073c.248-.086.082-.062.285-.081.012-.014.029-.053.034-.041.068.14-.056-.091.421-.393a1.879,1.879,0,0,0,.353-.981c.022-.431,0-.894-.006-1.328-.005-.851-.011-1.737,0-2.584A2.414,2.414,0,0,0,491.3.823c-.016-.009-.6-.584-.612-.6L490.109,0c-.869.173-.835.012-1.468.5Z" transform="translate(-467.279 0)" fill="#fff" fill-rule="evenodd"/>
      <path id="Caminho_112" data-name="Caminho 112" d="M148.243,1.175c-.131.154-.043.056-.239.165a.908.908,0,0,0-.241.153c-.174.149-.155.229-.384.347,0,.114.082.123-.033.1a1.126,1.126,0,0,1-.227.51,37.749,37.749,0,0,1,.027,4.128,1.7,1.7,0,0,0,.555,1.5c.465.418.773.415,1.55.406.013-.009.035-.037.041-.024s.055-.032.084-.047c.051-.027.077-.037.133-.067a1.328,1.328,0,0,0,.282-.185c.714-.6.668-1.021.668-2.046a33.317,33.317,0,0,1,.028-3.663c-.19-.2-.248-.516-.423-.713a1.784,1.784,0,0,0-.6-.454c-.588-.216-.706-.056-1.224-.105Z" transform="translate(-140.833 -1.114)" fill="#fff" fill-rule="evenodd"/>
      <path id="Caminho_113" data-name="Caminho 113" d="M115.017,443.787c-.11,3.322-.281,2.879,2.077,2.879.606,0,1.909.224,2.057-.365a21.892,21.892,0,0,0,.02-2.514c-.186-.577-1.033-.4-2.077-.4S115.2,443.21,115.017,443.787Z" transform="translate(-110.05 -424.415)" fill="#fff" fill-rule="evenodd"/>
      <path id="Caminho_114" data-name="Caminho 114" d="M115.008,337.2c.176.409.3.4.816.4.818-.008,1.7-.008,2.522,0,.52,0,.64.009.816-.4.11-3.319.27-2.879-2.077-2.879C114.722,334.317,114.9,333.89,115.008,337.2Z" transform="translate(-110.041 -320.011)" fill="#fff" fill-rule="evenodd"/>
      <path id="Caminho_115" data-name="Caminho 115" d="M365.3,443.669c.267,1.763-.586,2.981.82,2.972h2.524c1.528.01.559-1.257.886-2.905-.11-.1-.3-.3-.406-.405H365.7a2.052,2.052,0,0,1-.406.339Z" transform="translate(-349.667 -424.384)" fill="#fff" fill-rule="evenodd"/>
      <path id="Caminho_116" data-name="Caminho 116" d="M240.12,337.972a.4.4,0,0,1,.117.106.883.883,0,0,1,.11.161,21.437,21.437,0,0,0,3.447.068c.652-.045.529-.573.528-1.194,0-.565.031-1.221-.016-1.773a.747.747,0,0,0-.515-.3l-3.312.014c-.437.235-.332.718-.332,1.264A10.205,10.205,0,0,1,240.12,337.972Z" transform="translate(-229.858 -320.722)" fill="#fff" fill-rule="evenodd"/>
      <path id="Caminho_117" data-name="Caminho 117" d="M240.709,556.762l.194.276c.817.247,2.67-.065,3.674.1l.229-.242a12.641,12.641,0,0,0,.056-2.756l-.183-.23-.861-.059h-1.987c-.9.014-1.136-.105-1.128.868C240.708,555.4,240.692,556.084,240.709,556.762Z" transform="translate(-230.414 -530.181)" fill="#fff" fill-rule="evenodd"/>
      <path id="Caminho_118" data-name="Caminho 118" d="M365.856,553.7c-.446.627-.076,1.974-.227,2.862l.328.365,3.541,0c.086-.116-.042,0,.138-.154a.439.439,0,0,1,.161-.108c-.024-.637.023-1.523.027-2.221,0-.994-.42-.786-1.319-.8h-1.987Z" transform="translate(-350.002 -529.975)" fill="#fff" fill-rule="evenodd"/>
      <path id="Caminho_119" data-name="Caminho 119" d="M240.356,443.434a.91.91,0,0,1-.118.152.619.619,0,0,1-.118.1c.287,1.687-.525,2.953.753,2.951h2.787c.424,0,.445-.1.645-.319a13.775,13.775,0,0,0-.051-2.763l-.311-.23C242.927,443.514,241.44,443.226,240.356,443.434Z" transform="translate(-229.858 -424.384)" fill="#fff" fill-rule="evenodd"/>
      <path id="Caminho_120" data-name="Caminho 120" d="M493.25,444v1.987c.056.823.562.627,1.333.627.618,0,1.237,0,1.855,0,.9.007.965-.056.959-.959,0-.64.012-1.281-.009-1.921-.2-.585-1.144-.4-2.209-.4C493.9,443.339,493.271,443.13,493.25,444Z" transform="translate(-472.171 -424.365)" fill="#fff" fill-rule="evenodd"/>
      <path id="Caminho_121" data-name="Caminho 121" d="M115.918,553.934a2.374,2.374,0,0,0-.172,1.381,9.454,9.454,0,0,0,.036,1.457c.267.5.941.331,2.048.331s1.782.173,2.049-.331a10.145,10.145,0,0,0,.036-1.523,2.227,2.227,0,0,0-.172-1.315l-.389-.081-1.126,0h-.862l-1.059,0Z" transform="translate(-110.786 -530.181)" fill="#fff" fill-rule="evenodd"/>
      <path id="Caminho_122" data-name="Caminho 122" d="M493.261,553.888c-.231.479-.18.427-.176,1.03v.862l0,.926c.234.566.662.4,1.727.4,2.768,0,2.419.343,2.419-1.921,0-.907.192-1.311-.764-1.333h-1.987l-.861,0Z" transform="translate(-472.005 -530.181)" fill="#fff" fill-rule="evenodd"/>
    </g>
  </g>
</svg>
